<svg width="20" height="20" viewBox="0 0 20 20" fill="none" xmlns="http://www.w3.org/2000/svg">
<path d="M10 18.332C8.95833 18.332 7.98264 18.1341 7.07292 17.7383C6.16319 17.3424 5.37153 16.8077 4.69792 16.1341C4.02431 15.4605 3.48958 14.6688 3.09375 13.7591C2.69792 12.8494 2.5 11.8737 2.5 10.832H4.16667C4.16667 12.457 4.73264 13.8355 5.86458 14.9674C6.99653 16.0994 8.375 16.6654 10 16.6654C11.625 16.6654 13.0035 16.0994 14.1354 14.9674C15.2674 13.8355 15.8333 12.457 15.8333 10.832C15.8333 9.20703 15.2674 7.82856 14.1354 6.69661C13.0035 5.56467 11.625 4.9987 10 4.9987H9.875L11.1667 6.29036L10 7.4987L6.66667 4.16536L10 0.832031L11.1667 2.04036L9.875 3.33203H10C11.0417 3.33203 12.0174 3.52995 12.9271 3.92578C13.8368 4.32161 14.6285 4.85634 15.3021 5.52995C15.9757 6.20356 16.5104 6.99523 16.9062 7.90495C17.3021 8.81467 17.5 9.79037 17.5 10.832C17.5 11.8737 17.3021 12.8494 16.9062 13.7591C16.5104 14.6688 15.9757 15.4605 15.3021 16.1341C14.6285 16.8077 13.8368 17.3424 12.9271 17.7383C12.0174 18.1341 11.0417 18.332 10 18.332ZM7.5 13.332V9.58203H6.25V8.33203H8.75V13.332H7.5ZM10.4167 13.332C10.1806 13.332 9.98264 13.2522 9.82292 13.0924C9.66319 12.9327 9.58333 12.7348 9.58333 12.4987V9.16537C9.58333 8.92925 9.66319 8.73134 9.82292 8.57161C9.98264 8.41189 10.1806 8.33203 10.4167 8.33203H12.0833C12.3194 8.33203 12.5174 8.41189 12.6771 8.57161C12.8368 8.73134 12.9167 8.92925 12.9167 9.16537V12.4987C12.9167 12.7348 12.8368 12.9327 12.6771 13.0924C12.5174 13.2522 12.3194 13.332 12.0833 13.332H10.4167ZM10.8333 12.082H11.6667V9.58203H10.8333V12.082Z" fill="#ECEEF1"/>
</svg>
