<svg width="18" height="18" viewBox="0 0 18 18" fill="none" xmlns="http://www.w3.org/2000/svg">
<path d="M10.575 14.25C11.7875 14.25 12.8281 13.8563 13.6969 13.0688C14.5656 12.2812 15 11.3 15 10.125C15 8.95 14.5656 7.96875 13.6969 7.18125C12.8281 6.39375 11.7875 6 10.575 6H5.85L7.8 4.05L6.75 3L3 6.75L6.75 10.5L7.8 9.45L5.85 7.5H10.575C11.3625 7.5 12.0469 7.75 12.6281 8.25C13.2094 8.75 13.5 9.375 13.5 10.125C13.5 10.875 13.2094 11.5 12.6281 12C12.0469 12.5 11.3625 12.75 10.575 12.75H5.25V14.25H10.575Z" fill="black" fill-opacity="0.5"/>
</svg>
