<svg width="20" height="21" viewBox="0 0 20 21" fill="none" xmlns="http://www.w3.org/2000/svg">
<path d="M1.66602 5.4987V1.33203H5.83268V2.9987H3.33268V5.4987H1.66602ZM16.666 5.4987V2.9987H14.166V1.33203H18.3327V5.4987H16.666ZM1.66602 19.6654V15.4987H3.33268V17.9987H5.83268V19.6654H1.66602ZM14.166 19.6654V17.9987H16.666V15.4987H18.3327V19.6654H14.166ZM5.83268 15.4987H14.166V5.4987H5.83268V15.4987ZM5.83268 17.1654C5.37435 17.1654 4.98199 17.0022 4.6556 16.6758C4.32921 16.3494 4.16602 15.957 4.16602 15.4987V5.4987C4.16602 5.04036 4.32921 4.648 4.6556 4.32161C4.98199 3.99523 5.37435 3.83203 5.83268 3.83203H14.166C14.6243 3.83203 15.0167 3.99523 15.3431 4.32161C15.6695 4.648 15.8327 5.04036 15.8327 5.4987V15.4987C15.8327 15.957 15.6695 16.3494 15.3431 16.6758C15.0167 17.0022 14.6243 17.1654 14.166 17.1654H5.83268ZM7.49935 8.83203H12.4993V7.16536H7.49935V8.83203ZM7.49935 11.332H12.4993V9.66537H7.49935V11.332ZM7.49935 13.832H12.4993V12.1654H7.49935V13.832Z" fill="#ECEEF1"/>
</svg>
