<svg width="24" height="24" viewBox="0 0 24 24" fill="none" xmlns="http://www.w3.org/2000/svg">
<rect width="24" height="24" rx="12" fill="#34AADF"/>
<path d="M6.67684 11.5749C6.67684 11.5749 11.5596 9.5184 13.253 8.79425C13.9021 8.50461 16.1036 7.57769 16.1036 7.57769C16.1036 7.57769 17.1197 7.1722 17.035 8.15701C17.0067 8.56254 16.781 9.98182 16.5552 11.517C16.2165 13.6894 15.8496 16.0645 15.8496 16.0645C15.8496 16.0645 15.7931 16.7308 15.3133 16.8466C14.8335 16.9625 14.0432 16.4411 13.9021 16.3252C13.7892 16.2384 11.7853 14.9349 11.0515 14.2977C10.854 14.1239 10.6282 13.7763 11.0797 13.3708C12.0958 12.4149 13.3094 11.2274 14.0432 10.4743C14.3819 10.1267 14.7206 9.31563 13.3094 10.3004C11.3056 11.7198 9.32988 13.0522 9.32988 13.0522C9.32988 13.0522 8.87829 13.3418 8.03159 13.0811C7.18484 12.8205 6.19701 12.4729 6.19701 12.4729C6.19701 12.4729 5.51968 12.0384 6.67684 11.5749Z" fill="white"/>
</svg>
