<svg width="20" height="20" viewBox="0 0 20 20" fill="none" xmlns="http://www.w3.org/2000/svg">
<rect x="1" y="1" width="18" height="18" rx="2" fill="#006DF0"/>
<rect x="1" y="1" width="18" height="18" rx="2" stroke="white" stroke-width="1.5"/>
<path d="M9.44444 15V13.8889H10.5556V15H9.44444ZM9.44444 6.11111V5H10.5556V6.11111H9.44444ZM11.6667 15V13.8889H12.7778V15H11.6667ZM11.6667 6.11111V5H12.7778V6.11111H11.6667ZM13.8889 15V13.8889H15V15H13.8889ZM13.8889 6.11111V5H15V6.11111H13.8889ZM5 15V13.8889H6.11111V6.11111H5V5H8.33333V6.11111H7.22222V13.8889H8.33333V15H5ZM12.7778 12.2222L12 11.4444L12.875 10.5556H8.88889V9.44444H12.875L12 8.55556L12.7778 7.77778L15 10L12.7778 12.2222Z" fill="white"/>
</svg>
