<svg width="20" height="20" viewBox="0 0 20 20" fill="none" xmlns="http://www.w3.org/2000/svg">
<rect x="1" y="1" width="18" height="18" rx="2" fill="#006DF0"/>
<rect x="1" y="1" width="18" height="18" rx="2" stroke="white" stroke-width="1.5"/>
<path d="M3.25 16.75V15.25H4.75V16.75H3.25ZM3.25 4.75V3.25H4.75V4.75H3.25ZM6.25 16.75V15.25H7.75V16.75H6.25ZM6.25 4.75V3.25H7.75V4.75H6.25ZM9.25 16.75V15.25H10.75V16.75H9.25ZM12.25 16.75V15.25H13.75V16.75H12.25ZM12.25 4.75V3.25H13.75V4.75H12.25ZM15.25 16.75V3.25H16.75V16.75H15.25ZM8.5 13L7.45 11.95L8.63125 10.75H3.25V9.25H8.63125L7.45 8.05L8.5 7L11.5 10L8.5 13ZM9.25 4.75V3.25H10.75V4.75H9.25Z" fill="white"/>
</svg>
