<svg width="30" height="24" viewBox="0 0 30 24" fill="none" xmlns="http://www.w3.org/2000/svg">
<path d="M8.2 18.5C7.7325 18.5 7.33229 18.3409 6.99938 18.0227C6.66646 17.7044 6.5 17.3219 6.5 16.875V7.125C6.5 6.67812 6.66646 6.29557 6.99938 5.97734C7.33229 5.65911 7.7325 5.5 8.2 5.5H18.4C18.8675 5.5 19.2677 5.65911 19.6006 5.97734C19.9335 6.29557 20.1 6.67812 20.1 7.125V10.7812L23.5 7.53125V16.4688L20.1 13.2187V16.875C20.1 17.3219 19.9335 17.7044 19.6006 18.0227C19.2677 18.3409 18.8675 18.5 18.4 18.5H8.2ZM8.2 16.875H18.4V7.125H8.2V16.875Z" fill="black" fill-opacity="0.5"/>
</svg>
