<svg width="30" height="24" viewBox="0 0 30 24" fill="none" xmlns="http://www.w3.org/2000/svg">
<path d="M16.6667 19.5V17.7429C17.9167 17.3714 18.9236 16.6571 19.6875 15.6C20.4514 14.5429 20.8333 13.3429 20.8333 12C20.8333 10.6571 20.4514 9.45714 19.6875 8.4C18.9236 7.34286 17.9167 6.62857 16.6667 6.25714V4.5C18.3889 4.9 19.7917 5.79643 20.875 7.18929C21.9583 8.58214 22.5 10.1857 22.5 12C22.5 13.8143 21.9583 15.4179 20.875 16.8107C19.7917 18.2036 18.3889 19.1 16.6667 19.5ZM7.5 14.5929V9.45H10.8333L15 5.16429V18.8786L10.8333 14.5929H7.5ZM16.6667 15.45V8.55C17.3194 8.86429 17.8299 9.33571 18.1979 9.96429C18.566 10.5929 18.75 11.2786 18.75 12.0214C18.75 12.75 18.566 13.425 18.1979 14.0464C17.8299 14.6679 17.3194 15.1357 16.6667 15.45ZM13.3333 9.32143L11.5417 11.1643H9.16667V12.8786H11.5417L13.3333 14.7214V9.32143Z" fill="black" fill-opacity="0.5"/>
</svg>
