<svg width="24" height="24" viewBox="0 0 24 24" fill="none" xmlns="http://www.w3.org/2000/svg">
<rect width="24" height="24" rx="12" fill="#FF0000"/>
<path d="M18.6752 8.69898C18.5185 8.10989 18.0549 7.64516 17.4652 7.48589C16.3988 7.20007 12.1203 7.20007 12.1203 7.20007C12.1203 7.20007 7.84391 7.20007 6.77537 7.48589C6.18778 7.64298 5.72423 8.10771 5.56536 8.69898C5.28027 9.76807 5.28027 12.0001 5.28027 12.0001C5.28027 12.0001 5.28027 14.2321 5.56536 15.3012C5.72206 15.8903 6.1856 16.355 6.77537 16.5143C7.84391 16.8001 12.1203 16.8001 12.1203 16.8001C12.1203 16.8001 16.3988 16.8001 17.4652 16.5143C18.0528 16.3572 18.5163 15.8924 18.6752 15.3012C18.9603 14.2321 18.9603 12.0001 18.9603 12.0001C18.9603 12.0001 18.9603 9.76807 18.6752 8.69898Z" fill="white"/>
<path d="M10.7536 14.0575L14.3074 12.0001L10.7536 9.94262V14.0575Z" fill="#FF0000"/>
</svg>
